<svg xmlns="http://www.w3.org/2000/svg" viewBox="0 0 100 100" fill="none" class="w-10 h-10">
  <defs>
    <linearGradient id="logo-grad-1" x1="15%" y1="15%" x2="85%" y2="85%">
      <stop offset="0%" stop-color="#2563EB" />
      <stop offset="100%" stop-color="#1D4ED8" />
    </linearGradient>
    <linearGradient id="logo-grad-2" x1="15%" y1="15%" x2="85%" y2="85%">
      <stop offset="0%" stop-color="#60A5FA" />
      <stop offset="100%" stop-color="#3B82F6" />
    </linearGradient>
    <filter id="logo-shadow" x="-10%" y="-10%" width="130%" height="130%" filterUnits="userSpaceOnUse">
      <feDropShadow dx="0" dy="4" stdDeviation="4" flood-color="#1E3A8A" flood-opacity="0.15" />
    </filter>
  </defs>
  <!-- Flow Ring Left -->
  <path d="M30 50 C 30 35, 45 30, 50 42 C 55 54, 70 65, 70 50 C 70 35, 55 20, 30 35 C 10 47, 10 70, 30 75 C 45 78, 55 68, 50 60 C 45 52, 35 50, 30 50 Z" fill="url(#logo-grad-1)" filter="url(#logo-shadow)" />
  <!-- Flow Ring Right / Sparkle overlap -->
  <circle cx="50" cy="50" r="8" fill="url(#logo-grad-2)" />
  <path d="M50 35 L52 45 L62 47 L52 49 L50 59 L48 49 L38 47 L48 45 Z" fill="#FFFFFF" opacity="0.9" />
</svg>
